<svg width="90" height="90" viewBox="0 0 90 90" fill="none" xmlns="http://www.w3.org/2000/svg">
<g clip-path="url(#clip0)">
<rect width="90" height="90" fill="#FCB41C"/>
<path d="M90 45C90 56.9724 85.3521 68.2402 76.9132 76.7285C68.4792 85.21 57.2518 89.9224 45.2953 89.9979C45.2657 89.9979 45.2335 90 45.2039 89.9979C45.1373 90 45.0687 90 45 90C32.9816 90 21.6808 85.3205 13.1815 76.8198C4.68086 68.3212 0 57.0197 0 45C0 32.9803 4.68086 21.6808 13.1815 13.1802C21.6808 4.68086 32.9816 0 45 0C45.0687 0 45.1353 0 45.2039 0.00205995C45.2355 0.00205995 45.2671 0.00205995 45.2987 0.00343322C57.2539 0.0810243 68.4805 4.7921 76.9132 13.2735C85.3521 21.7619 90 33.029 90 45Z" fill="#FCB41C"/>
<path d="M45.2227 18.95C45.2968 18.9487 45.1583 18.95 45.2227 18.95V18.95Z" fill="black"/>
<path d="M52.7207 26.4482V46.5642C52.7207 50.6992 49.3575 54.063 45.2232 54.063H45.204C43.2725 54.0067 41.2784 53.2267 39.9203 51.8678C38.5051 50.4513 37.7244 48.5685 37.7244 46.5642V26.4482C37.7244 22.3593 41.1191 19.0668 45.204 18.9494H45.2232C49.3575 18.9494 52.7207 22.3139 52.7207 26.4482V26.4482Z" fill="white"/>
<path d="M45.2227 54.0637C45.1583 54.0637 45.2871 54.0651 45.2227 54.0637V54.0637Z" fill="black"/>
<path d="M52.3196 63.5696C52.3196 67.4842 49.1363 70.6675 45.2217 70.6675H45.2039C41.2996 70.6586 38.1252 67.4787 38.1252 63.5696C38.1252 59.6619 41.2996 56.4821 45.2039 56.4731H45.2217C49.1363 56.4731 52.3196 59.6564 52.3196 63.5696Z" fill="white"/>
</g>
<defs>
<clipPath id="clip0">
<rect width="90" height="90" fill="#FCB41C"/>
</clipPath>
</defs>
</svg>
